<?xml version="1.0" encoding="utf-8"?>
<!-- Generator: Adobe Illustrator 19.2.1, SVG Export Plug-In . SVG Version: 6.00 Build 0)  -->
<svg version="1.1" id="layer" xmlns="http://www.w3.org/2000/svg" xmlns:xlink="http://www.w3.org/1999/xlink" x="0px" y="0px"
	 viewBox="0 0 652 652" style="enable-background:new 0 0 652 652;" xml:space="preserve">
<style type="text/css">
	.st0{fill:#FF0000;}
</style>
<g>
	<path class="st0" d="M68.6,304.3c5-8.2,11.9-12.4,21.6-12.4c14.8,0,24.8,11.1,24.8,26.8v46.7H96v-44c0-7.7-4.4-13.1-12.4-13.1
		c-8.3,0-14.5,6.7-14.5,16.4v40.7H50.2v-71.6h18.6C68.6,293.8,68.6,302.4,68.6,304.3z M496.7,304.3c5-8.2,11.9-12.4,21.6-12.4
		c14.8,0,24.8,11.1,24.8,26.8v46.7h-19v-44c0-7.7-4.4-13.1-12.4-13.1c-8.3,0-14.5,6.7-14.5,16.4v40.7h-19v-71.6h18.6
		C496.7,293.8,496.7,302.4,496.7,304.3z M162.1,329.6c0-21.2,14.3-37.6,36.1-37.6c21.3,0,34.1,15.3,33.9,37.9c0,1.9,0,3.4-0.1,5.3
		h-51.2c1.4,11,6.6,17.8,17.3,17.8c5.9,0,11.5-3,14.3-8.7h18.3c-2.6,12.7-14.2,23.5-32.6,23.5C174.5,367.6,162.1,350.9,162.1,329.6z
		 M181.2,321.9h32.1c-0.5-9.1-6.4-15.4-15-15.4C188.2,306.6,182.5,313.3,181.2,321.9z M381,306.1l0.4-0.9
		c4.3-8.1,9.2-12.3,17.5-12.3c2.2,0,3.4,0.1,4.4,0.5v16.7H403c-12.4-1.3-21.3,5.3-21.3,20.3v35h-19v-71.6H381V306.1z M449.2,357.8
		c-2.9,4.6-8.2,9.2-20.3,9.2c-14.7,0-25.1-7.3-25.1-21.6c0-15.8,12.5-21.2,28.4-23.4c11.9-1.6,16.8-2.6,16.8-8.1
		c0-5.2-3.5-8.5-11.5-8.5c-9,0-12.7,3.1-13.3,10.1h-16.9c0.5-12.5,9.5-23.6,30.3-23.6c21.5,0,30.3,9.6,30.3,26.4v36.5
		c0,5.4,0.9,9.4,2.5,10.6h-19C450.5,364,449.5,360.4,449.2,357.8z M449.5,340.1v-10.7c-3.4,1.9-7.9,3-12.7,4.2
		c-9.9,2.3-14,4.4-14,11.1c0,6.7,3.7,9.1,10.3,9.1C443.9,353.8,449.5,347.1,449.5,340.1z M20,274.5v90.9h19v-90.9H20z M148.5,344.3
		v-37.7h12.3v-12.7h-12.3v-19.4h-18.8v19.3h-9.9v12.7h9.9v41.8c0,13.5,10.5,17.2,19.7,17.2c7.6,0,11.9-0.2,11.9-0.2v-14
		c0,0-3.1,0.1-5.5,0.1C151.4,351.4,148.5,349.7,148.5,344.3z M325.5,291.8c-9.1,0.1-16.4,3.8-20.3,9.9v-27.2h-19v90.9h18.3v-7.5
		c4.2,6.7,11.4,9.5,19.9,9.5c19.7,0,31.3-14.2,31.3-37.6C355.7,306.3,343.6,291.7,325.5,291.8z M321.1,352.1
		c-11.1,0-16.3-8.7-16.3-21.9c0-13.3,4.3-22.8,16.3-22.8c10.6,0,15.3,9.2,15.3,22.5C336.6,343.4,331,352.1,321.1,352.1z
		 M257.8,306.1l0.4-0.9c4.3-8.1,9.2-12.3,17.5-12.3c2.2,0,3.4,0.1,4.4,0.5v16.7h-0.4c-12.4-1.3-21.3,5.3-21.3,20.3v35h-19v-71.6
		h18.3V306.1L257.8,306.1z M550,329.7c0,23.6,12,37.6,31.6,37.6c8.5,0,15.9-2.6,20.1-9.5v7.5H620v-90.9h-19v27.2
		c-3.9-6.1-11.4-9.7-20.6-9.9C562.5,291.7,550,306.3,550,329.7z M569.2,329.7c0-13.3,4.9-22.5,15.5-22.5c12,0,16.6,9.6,16.6,22.8
		c0,13.1-5.4,22.4-16.6,22.4C575.1,352.5,569.2,343.4,569.2,329.7z"/>
</g>
</svg>
